<?xml version="1.0" standalone="no"?>
<!DOCTYPE svg PUBLIC "-//W3C//DTD SVG 20010904//EN"
 "http://www.w3.org/TR/2001/REC-SVG-20010904/DTD/svg10.dtd">
<svg version="1.0" xmlns="http://www.w3.org/2000/svg"
 width="82.000000pt" height="82.000000pt" viewBox="0 0 82.000000 82.000000"
 preserveAspectRatio="xMidYMid meet">
<metadata>
Created by potrace 1.14, written by Peter Selinger 2001-2017
</metadata>
<g transform="translate(0.000000,82.000000) scale(0.100000,-0.100000)"
fill="#000000" stroke="none">
<path d="M114 799 c-17 -5 -43 -21 -58 -36 -56 -55 -56 -58 -53 -370 2 -286 2
-288 26 -322 47 -66 72 -71 386 -71 271 0 281 1 320 23 26 14 48 37 63 67 22
44 22 53 22 319 -1 230 -4 279 -17 305 -19 37 -58 72 -93 84 -33 12 -555 12
-596 1z"/>
</g>
</svg>
